<svg xmlns="http://www.w3.org/2000/svg" xmlns:xlink="http://www.w3.org/1999/xlink" width="264" zoomAndPan="magnify" viewBox="0 0 198 44.999999" height="60" preserveAspectRatio="xMidYMid meet" version="1.0"><defs><g/><clipPath id="a3bc4831fa"><rect x="0" width="164" y="0" height="45"/></clipPath><clipPath id="5e205c7647"><path d="M 0 1 L 37 1 L 37 43 L 0 43 Z M 0 1 " clip-rule="nonzero"/></clipPath><clipPath id="c1319656f2"><rect x="0" width="40" y="0" height="45"/></clipPath></defs><g transform="matrix(1, 0, 0, 1, 34, 0)"><g clip-path="url(#a3bc4831fa)"><g fill="#000000" fill-opacity="1"><g transform="translate(0.746636, 38.984361)"><g><path d="M 23.328125 -10.269531 L 23.328125 -7.835938 L 5.269531 -7.835938 L 5.269531 -8.617188 L 6.039062 -8.75 C 6.300781 -7.25 7.027344 -6.023438 8.210938 -5.074219 C 9.4375 -4.085938 10.792969 -3.59375 12.277344 -3.59375 C 13.28125 -3.59375 14.25 -3.832031 15.179688 -4.3125 C 16.085938 -4.765625 16.84375 -5.402344 17.453125 -6.226562 L 17.6875 -6.539062 L 22.855469 -6.539062 L 22.367188 -5.441406 C 21.46875 -3.425781 20.121094 -1.835938 18.324219 -0.683594 C 16.5 0.5 14.648438 1.09375 12.769531 1.09375 C 10.902344 1.09375 9.308594 0.804688 7.988281 0.222656 C 6.652344 -0.347656 5.484375 -1.132812 4.492188 -2.125 C 2.316406 -4.238281 1.226562 -6.832031 1.226562 -9.910156 C 1.226562 -12.953125 2.316406 -15.5625 4.492188 -17.742188 C 6.640625 -19.886719 9.234375 -20.960938 12.277344 -20.960938 C 15.222656 -20.960938 17.796875 -19.921875 20 -17.847656 C 22.21875 -15.726562 23.328125 -13.199219 23.328125 -10.269531 Z M 21.765625 -10.269531 C 21.765625 -12.753906 20.820312 -14.902344 18.929688 -16.707031 C 17.027344 -18.5 14.808594 -19.398438 12.277344 -19.398438 C 9.664062 -19.398438 7.4375 -18.476562 5.597656 -16.636719 C 3.726562 -14.765625 2.789062 -12.523438 2.789062 -9.910156 C 2.789062 -7.273438 3.726562 -5.046875 5.597656 -3.230469 C 6.449219 -2.378906 7.457031 -1.703125 8.617188 -1.207031 C 9.738281 -0.714844 11.121094 -0.46875 12.769531 -0.46875 C 14.339844 -0.46875 15.910156 -0.976562 17.480469 -1.996094 C 19.015625 -2.984375 20.167969 -4.34375 20.9375 -6.078125 L 21.652344 -5.757812 L 21.652344 -4.976562 L 18.082031 -4.976562 L 18.082031 -5.757812 L 18.707031 -5.292969 C 17.949219 -4.269531 17.011719 -3.480469 15.894531 -2.921875 C 14.738281 -2.328125 13.535156 -2.03125 12.277344 -2.03125 C 10.425781 -2.03125 8.746094 -2.640625 7.234375 -3.855469 C 5.742188 -5.046875 4.832031 -6.589844 4.5 -8.480469 L 4.335938 -9.398438 L 22.546875 -9.398438 L 22.546875 -8.617188 L 21.765625 -8.617188 Z M 18.476562 -11.132812 C 18.15625 -12.625 17.410156 -13.863281 16.238281 -14.847656 C 15.078125 -15.796875 13.757812 -16.273438 12.277344 -16.273438 C 10.003906 -16.273438 8.214844 -15.246094 6.910156 -13.195312 C 6.511719 -12.5625 6.234375 -11.875 6.078125 -11.132812 L 5.3125 -11.296875 L 5.3125 -12.078125 L 19.242188 -12.078125 L 19.242188 -11.296875 Z M 20.207031 -10.515625 L 4.347656 -10.515625 L 4.546875 -11.457031 C 4.746094 -12.382812 5.09375 -13.242188 5.589844 -14.035156 C 7.203125 -16.570312 9.433594 -17.835938 12.277344 -17.835938 C 14.128906 -17.835938 15.785156 -17.238281 17.246094 -16.042969 C 18.691406 -14.828125 19.609375 -13.300781 20.003906 -11.457031 Z M 20.207031 -10.515625 "/></g></g></g><g fill="#000000" fill-opacity="1"><g transform="translate(25.076978, 38.984361)"><g><path d="M 6.648438 -3.453125 C 7.289062 -3.011719 8.152344 -2.789062 9.242188 -2.789062 C 10.496094 -2.789062 11.410156 -3.007812 11.988281 -3.4375 C 12.492188 -3.816406 12.746094 -4.414062 12.746094 -5.222656 C 12.746094 -6.09375 11.902344 -6.796875 10.210938 -7.335938 L 10.199219 -7.339844 L 10.191406 -7.34375 C 9.351562 -7.632812 8.453125 -7.894531 7.496094 -8.125 C 6.4375 -8.375 5.457031 -8.703125 4.546875 -9.109375 C 3.402344 -9.648438 2.535156 -10.328125 1.953125 -11.15625 C 1.351562 -12.003906 1.050781 -13.003906 1.050781 -14.152344 C 1.050781 -16.382812 1.84375 -18.070312 3.429688 -19.207031 C 4.929688 -20.316406 6.71875 -20.871094 8.796875 -20.871094 C 10.847656 -20.871094 12.5625 -20.445312 13.9375 -19.59375 C 15.375 -18.703125 16.339844 -17.15625 16.835938 -14.949219 L 17.046875 -13.996094 L 12.15625 -13.996094 L 11.980469 -14.535156 C 11.6875 -15.433594 11.296875 -16.011719 10.800781 -16.273438 C 10.253906 -16.570312 9.554688 -16.71875 8.707031 -16.71875 C 7.871094 -16.71875 7.171875 -16.550781 6.613281 -16.207031 C 6.148438 -15.917969 5.914062 -15.484375 5.914062 -14.910156 C 5.914062 -14.289062 6.101562 -13.847656 6.476562 -13.585938 C 6.976562 -13.242188 7.628906 -12.933594 8.425781 -12.660156 L 8.167969 -11.921875 L 8.402344 -12.667969 C 9.242188 -12.40625 10.152344 -12.175781 11.140625 -11.972656 L 11.152344 -11.96875 L 11.167969 -11.964844 C 12.199219 -11.714844 13.183594 -11.371094 14.125 -10.929688 C 16.449219 -9.835938 17.613281 -8.070312 17.613281 -5.625 C 17.613281 -3.234375 16.738281 -1.453125 14.988281 -0.289062 C 14.144531 0.261719 13.222656 0.683594 12.226562 0.972656 C 11.257812 1.230469 10.203125 1.363281 9.0625 1.363281 C 6.609375 1.363281 4.65625 0.800781 3.207031 -0.320312 C 1.734375 -1.457031 0.8125 -3.136719 0.433594 -5.359375 L 0.28125 -6.273438 L 5.117188 -6.273438 L 5.265625 -5.683594 C 5.542969 -4.605469 5.992188 -3.867188 6.621094 -3.472656 L 6.636719 -3.464844 Z M 5.761719 -2.171875 L 6.207031 -2.8125 L 5.789062 -2.152344 C 4.808594 -2.769531 4.132812 -3.816406 3.753906 -5.296875 L 4.507812 -5.492188 L 4.507812 -4.710938 L 1.207031 -4.710938 L 1.207031 -5.492188 L 1.976562 -5.621094 C 2.285156 -3.796875 3.011719 -2.441406 4.160156 -1.554688 C 5.328125 -0.652344 6.964844 -0.199219 9.0625 -0.199219 C 10.066406 -0.199219 10.976562 -0.308594 11.792969 -0.527344 C 12.640625 -0.773438 13.414062 -1.125 14.121094 -1.585938 C 15.40625 -2.445312 16.050781 -3.789062 16.050781 -5.625 C 16.050781 -7.40625 15.1875 -8.703125 13.464844 -9.515625 C 12.617188 -9.910156 11.730469 -10.21875 10.796875 -10.445312 L 10.984375 -11.207031 L 10.824219 -10.441406 C 9.789062 -10.652344 8.824219 -10.898438 7.9375 -11.175781 L 7.925781 -11.175781 L 7.914062 -11.179688 C 6.984375 -11.5 6.207031 -11.878906 5.578125 -12.308594 C 4.761719 -12.878906 4.351562 -13.746094 4.351562 -14.910156 C 4.351562 -16.0625 4.835938 -16.941406 5.800781 -17.542969 C 6.609375 -18.035156 7.578125 -18.28125 8.707031 -18.28125 C 9.820312 -18.28125 10.757812 -18.074219 11.523438 -17.65625 C 12.394531 -17.203125 13.042969 -16.320312 13.46875 -15.019531 L 12.722656 -14.777344 L 12.722656 -15.558594 L 16.070312 -15.558594 L 16.070312 -14.777344 L 15.308594 -14.605469 C 14.910156 -16.386719 14.179688 -17.605469 13.117188 -18.265625 C 11.992188 -18.960938 10.550781 -19.308594 8.796875 -19.308594 C 7.0625 -19.308594 5.578125 -18.851562 4.339844 -17.9375 C 3.1875 -17.109375 2.613281 -15.847656 2.613281 -14.152344 C 2.613281 -13.335938 2.816406 -12.636719 3.226562 -12.058594 C 3.652344 -11.457031 4.304688 -10.949219 5.1875 -10.535156 C 6.003906 -10.167969 6.894531 -9.871094 7.863281 -9.644531 C 8.867188 -9.398438 9.816406 -9.125 10.703125 -8.820312 L 10.445312 -8.082031 L 10.683594 -8.824219 C 13.101562 -8.054688 14.308594 -6.855469 14.308594 -5.222656 C 14.308594 -3.890625 13.847656 -2.878906 12.925781 -2.1875 C 12.070312 -1.546875 10.84375 -1.226562 9.242188 -1.226562 C 7.828125 -1.226562 6.667969 -1.542969 5.761719 -2.171875 Z M 5.761719 -2.171875 "/></g></g></g><g fill="#000000" fill-opacity="1"><g transform="translate(43.023396, 38.984361)"><g><path d="M 7.070312 -26.980469 C 7.609375 -26.441406 7.878906 -25.796875 7.878906 -25.046875 C 7.878906 -24.265625 7.609375 -23.605469 7.070312 -23.0625 C 6.53125 -22.523438 5.886719 -22.253906 5.132812 -22.253906 C 4.351562 -22.253906 3.691406 -22.523438 3.152344 -23.0625 C 2.613281 -23.605469 2.34375 -24.265625 2.34375 -25.046875 C 2.34375 -25.796875 2.613281 -26.441406 3.152344 -26.980469 C 3.691406 -27.519531 4.351562 -27.792969 5.132812 -27.792969 C 5.886719 -27.792969 6.53125 -27.519531 7.070312 -26.980469 Z M 5.964844 -25.878906 C 5.730469 -26.109375 5.453125 -26.226562 5.132812 -26.226562 C 4.785156 -26.226562 4.492188 -26.109375 4.257812 -25.878906 C 4.023438 -25.644531 3.90625 -25.367188 3.90625 -25.046875 C 3.90625 -24.695312 4.023438 -24.402344 4.257812 -24.167969 C 4.492188 -23.933594 4.785156 -23.816406 5.132812 -23.816406 C 5.453125 -23.816406 5.730469 -23.933594 5.964844 -24.167969 C 6.199219 -24.402344 6.316406 -24.695312 6.316406 -25.046875 C 6.316406 -25.367188 6.199219 -25.644531 5.964844 -25.878906 Z M 6.695312 0.78125 L 2.789062 0.78125 L 2.789062 -20.425781 L 7.476562 -20.425781 L 7.476562 0.78125 Z M 6.695312 -0.78125 L 6.695312 0 L 5.914062 0 L 5.914062 -19.644531 L 6.695312 -19.644531 L 6.695312 -18.863281 L 3.570312 -18.863281 L 3.570312 -19.644531 L 4.351562 -19.644531 L 4.351562 0 L 3.570312 0 L 3.570312 -0.78125 Z M 6.695312 -0.78125 "/></g></g></g><g fill="#000000" fill-opacity="1"><g transform="translate(53.246607, 38.984361)"><g><path d="M 23.953125 -8.480469 C 23.953125 -7.109375 23.640625 -5.800781 23.019531 -4.5625 C 22.402344 -3.320312 21.566406 -2.304688 20.515625 -1.519531 C 18.535156 0.015625 15.90625 0.78125 12.632812 0.78125 L 2.566406 0.78125 L 2.566406 -31.140625 L 11.5625 -31.140625 C 16.324219 -31.140625 19.445312 -29.625 20.925781 -26.59375 C 21.453125 -25.503906 21.71875 -24.390625 21.71875 -23.257812 C 21.71875 -22.179688 21.636719 -21.324219 21.46875 -20.695312 L 21.46875 -20.683594 L 21.464844 -20.667969 C 21.269531 -20.019531 21.007812 -19.402344 20.683594 -18.816406 L 20.679688 -18.808594 L 20.671875 -18.800781 C 19.90625 -17.496094 18.90625 -16.570312 17.683594 -16.027344 L 17.367188 -16.742188 L 17.566406 -17.496094 C 19.53125 -16.972656 21.089844 -15.921875 22.238281 -14.34375 C 23.378906 -12.746094 23.953125 -10.792969 23.953125 -8.480469 Z M 22.390625 -8.480469 C 22.390625 -10.457031 21.917969 -12.105469 20.976562 -13.425781 C 20.042969 -14.703125 18.773438 -15.558594 17.164062 -15.988281 L 15.027344 -16.558594 L 17.050781 -17.457031 C 17.96875 -17.863281 18.726562 -18.578125 19.328125 -19.59375 L 20 -19.195312 L 19.316406 -19.578125 C 19.589844 -20.0625 19.804688 -20.578125 19.964844 -21.117188 L 20.714844 -20.894531 L 19.960938 -21.09375 C 20.089844 -21.59375 20.15625 -22.316406 20.15625 -23.257812 C 20.15625 -24.152344 19.945312 -25.035156 19.523438 -25.90625 C 18.324219 -28.355469 15.671875 -29.578125 11.5625 -29.578125 L 3.347656 -29.578125 L 3.347656 -30.359375 L 4.128906 -30.359375 L 4.128906 0 L 3.347656 0 L 3.347656 -0.78125 L 12.632812 -0.78125 C 15.550781 -0.78125 17.867188 -1.445312 19.578125 -2.769531 C 20.429688 -3.410156 21.113281 -4.238281 21.625 -5.261719 C 22.132812 -6.28125 22.390625 -7.355469 22.390625 -8.480469 Z M 17.03125 -22.769531 C 17.03125 -24.039062 16.617188 -24.976562 15.789062 -25.589844 C 14.882812 -26.253906 13.476562 -26.585938 11.5625 -26.585938 L 6.472656 -26.585938 L 6.472656 -27.367188 L 7.253906 -27.367188 L 7.253906 -17.902344 L 6.472656 -17.902344 L 6.472656 -18.683594 L 12.457031 -18.683594 C 13.878906 -18.683594 15.007812 -19.027344 15.84375 -19.710938 C 16.636719 -20.359375 17.03125 -21.378906 17.03125 -22.769531 Z M 18.59375 -22.769531 C 18.59375 -20.886719 18.007812 -19.464844 16.835938 -18.503906 C 15.707031 -17.582031 14.25 -17.121094 12.457031 -17.121094 L 5.691406 -17.121094 L 5.691406 -28.148438 L 11.5625 -28.148438 C 13.816406 -28.148438 15.535156 -27.714844 16.714844 -26.847656 C 17.96875 -25.925781 18.59375 -24.566406 18.59375 -22.769531 Z M 19.265625 -9.0625 C 19.265625 -9.835938 19.125 -10.515625 18.847656 -11.09375 L 19.554688 -11.429688 L 18.863281 -11.066406 C 18.542969 -11.675781 18.152344 -12.199219 17.679688 -12.648438 L 18.214844 -13.214844 L 17.699219 -12.625 C 16.65625 -13.539062 15.429688 -13.996094 14.019531 -13.996094 L 6.472656 -13.996094 L 6.472656 -14.777344 L 7.253906 -14.777344 L 7.253906 -2.992188 L 6.472656 -2.992188 L 6.472656 -3.773438 L 13.527344 -3.773438 C 15.230469 -3.773438 16.621094 -4.257812 17.691406 -5.222656 C 18.738281 -6.195312 19.265625 -7.476562 19.265625 -9.0625 Z M 20.828125 -9.0625 C 20.828125 -7.019531 20.128906 -5.351562 18.738281 -4.0625 C 17.371094 -2.828125 15.632812 -2.210938 13.527344 -2.210938 L 5.691406 -2.210938 L 5.691406 -15.558594 L 14.019531 -15.558594 C 15.820312 -15.558594 17.390625 -14.972656 18.730469 -13.800781 L 18.742188 -13.792969 L 18.75 -13.78125 C 19.351562 -13.214844 19.847656 -12.550781 20.246094 -11.789062 L 20.253906 -11.777344 L 20.257812 -11.765625 C 20.636719 -10.976562 20.828125 -10.074219 20.828125 -9.0625 Z M 20.828125 -9.0625 "/></g></g></g><g fill="#000000" fill-opacity="1"><g transform="translate(77.309093, 38.984361)"><g><path d="M 18.191406 -9.820312 C 18.191406 -11.523438 17.605469 -13.015625 16.433594 -14.292969 C 15.253906 -15.554688 13.792969 -16.183594 12.054688 -16.183594 C 10.320312 -16.183594 8.875 -15.554688 7.71875 -14.292969 C 6.515625 -13.011719 5.914062 -11.519531 5.914062 -9.820312 C 5.914062 -8.121094 6.515625 -6.632812 7.714844 -5.355469 C 8.871094 -4.09375 10.320312 -3.460938 12.054688 -3.460938 C 13.792969 -3.460938 15.253906 -4.09375 16.441406 -5.355469 C 17.609375 -6.632812 18.191406 -8.121094 18.191406 -9.820312 Z M 19.753906 -9.820312 C 19.753906 -7.714844 19.03125 -5.871094 17.578125 -4.289062 C 16.085938 -2.695312 14.242188 -1.898438 12.054688 -1.898438 C 9.859375 -1.898438 8.035156 -2.695312 6.574219 -4.289062 C 5.09375 -5.867188 4.351562 -7.710938 4.351562 -9.820312 C 4.351562 -11.933594 5.089844 -13.773438 6.566406 -15.351562 C 8.03125 -16.949219 9.859375 -17.746094 12.054688 -17.746094 C 14.242188 -17.746094 16.085938 -16.949219 17.585938 -15.351562 C 19.03125 -13.773438 19.753906 -11.929688 19.753906 -9.820312 Z M 22.097656 0.78125 L 18.191406 0.78125 L 18.191406 -3.347656 L 18.972656 -3.347656 L 19.597656 -2.878906 C 19.410156 -2.628906 19.222656 -2.390625 19.03125 -2.171875 L 19.023438 -2.164062 L 19.019531 -2.15625 C 16.988281 0.101562 14.503906 1.226562 11.5625 1.226562 C 8.621094 1.226562 6.148438 0.0976562 4.148438 -2.160156 C 2.199219 -4.332031 1.226562 -6.882812 1.226562 -9.820312 C 1.226562 -12.757812 2.203125 -15.3125 4.152344 -17.488281 C 6.148438 -19.742188 8.621094 -20.871094 11.5625 -20.871094 C 14.503906 -20.871094 16.988281 -19.742188 19.019531 -17.488281 L 19.023438 -17.480469 L 19.03125 -17.472656 C 19.222656 -17.253906 19.410156 -17.015625 19.597656 -16.765625 L 18.972656 -16.296875 L 18.191406 -16.296875 L 18.191406 -20.425781 L 22.878906 -20.425781 L 22.878906 0.78125 Z M 22.097656 -0.78125 L 22.097656 0 L 21.316406 0 L 21.316406 -19.644531 L 22.097656 -19.644531 L 22.097656 -18.863281 L 18.972656 -18.863281 L 18.972656 -19.644531 L 19.753906 -19.644531 L 19.753906 -13.953125 L 18.347656 -15.828125 C 18.179688 -16.050781 18.011719 -16.261719 17.84375 -16.457031 L 18.4375 -16.964844 L 17.855469 -16.441406 C 16.136719 -18.351562 14.039062 -19.308594 11.5625 -19.308594 C 9.089844 -19.308594 7.007812 -18.351562 5.3125 -16.441406 C 3.632812 -14.566406 2.789062 -12.359375 2.789062 -9.820312 C 2.789062 -7.28125 3.632812 -5.074219 5.316406 -3.195312 C 7.007812 -1.289062 9.089844 -0.335938 11.5625 -0.335938 C 14.039062 -0.335938 16.136719 -1.289062 17.855469 -3.203125 L 18.4375 -2.679688 L 17.84375 -3.1875 C 18.011719 -3.382812 18.179688 -3.59375 18.347656 -3.816406 L 19.753906 -5.691406 L 19.753906 0 L 18.972656 0 L 18.972656 -0.78125 Z M 22.097656 -0.78125 "/></g></g></g><g fill="#000000" fill-opacity="1"><g transform="translate(102.755509, 38.984361)"><g><path d="M -0.171875 -0.476562 L 12.683594 -17.21875 L 13.304688 -16.742188 L 13.304688 -15.960938 L 0.425781 -15.960938 L 0.425781 -20.425781 L 20.871094 -20.425781 L 7.046875 -2.425781 L 6.429688 -2.902344 L 6.429688 -3.683594 L 20.648438 -3.683594 L 20.648438 0.78125 L -1.140625 0.78125 Z M 1.066406 0.476562 L 0.445312 0 L 0.445312 -0.78125 L 19.867188 -0.78125 L 19.867188 0 L 19.085938 0 L 19.085938 -2.902344 L 19.867188 -2.902344 L 19.867188 -2.121094 L 4.84375 -2.121094 L 18.667969 -20.121094 L 19.285156 -19.644531 L 19.285156 -18.863281 L 1.207031 -18.863281 L 1.207031 -19.644531 L 1.988281 -19.644531 L 1.988281 -16.742188 L 1.207031 -16.742188 L 1.207031 -17.523438 L 14.890625 -17.523438 Z M 1.066406 0.476562 "/></g></g></g><g fill="#000000" fill-opacity="1"><g transform="translate(123.068002, 38.984361)"><g><path d="M 18.191406 -9.820312 C 18.191406 -11.523438 17.605469 -13.015625 16.433594 -14.292969 C 15.253906 -15.554688 13.792969 -16.183594 12.054688 -16.183594 C 10.320312 -16.183594 8.875 -15.554688 7.71875 -14.292969 C 6.515625 -13.011719 5.914062 -11.519531 5.914062 -9.820312 C 5.914062 -8.121094 6.515625 -6.632812 7.714844 -5.355469 C 8.871094 -4.09375 10.320312 -3.460938 12.054688 -3.460938 C 13.792969 -3.460938 15.253906 -4.09375 16.441406 -5.355469 C 17.609375 -6.632812 18.191406 -8.121094 18.191406 -9.820312 Z M 19.753906 -9.820312 C 19.753906 -7.714844 19.03125 -5.871094 17.578125 -4.289062 C 16.085938 -2.695312 14.242188 -1.898438 12.054688 -1.898438 C 9.859375 -1.898438 8.035156 -2.695312 6.574219 -4.289062 C 5.09375 -5.867188 4.351562 -7.710938 4.351562 -9.820312 C 4.351562 -11.933594 5.089844 -13.773438 6.566406 -15.351562 C 8.03125 -16.949219 9.859375 -17.746094 12.054688 -17.746094 C 14.242188 -17.746094 16.085938 -16.949219 17.585938 -15.351562 C 19.03125 -13.773438 19.753906 -11.929688 19.753906 -9.820312 Z M 22.097656 0.78125 L 18.191406 0.78125 L 18.191406 -3.347656 L 18.972656 -3.347656 L 19.597656 -2.878906 C 19.410156 -2.628906 19.222656 -2.390625 19.03125 -2.171875 L 19.023438 -2.164062 L 19.019531 -2.15625 C 16.988281 0.101562 14.503906 1.226562 11.5625 1.226562 C 8.621094 1.226562 6.148438 0.0976562 4.148438 -2.160156 C 2.199219 -4.332031 1.226562 -6.882812 1.226562 -9.820312 C 1.226562 -12.757812 2.203125 -15.3125 4.152344 -17.488281 C 6.148438 -19.742188 8.621094 -20.871094 11.5625 -20.871094 C 14.503906 -20.871094 16.988281 -19.742188 19.019531 -17.488281 L 19.023438 -17.480469 L 19.03125 -17.472656 C 19.222656 -17.253906 19.410156 -17.015625 19.597656 -16.765625 L 18.972656 -16.296875 L 18.191406 -16.296875 L 18.191406 -20.425781 L 22.878906 -20.425781 L 22.878906 0.78125 Z M 22.097656 -0.78125 L 22.097656 0 L 21.316406 0 L 21.316406 -19.644531 L 22.097656 -19.644531 L 22.097656 -18.863281 L 18.972656 -18.863281 L 18.972656 -19.644531 L 19.753906 -19.644531 L 19.753906 -13.953125 L 18.347656 -15.828125 C 18.179688 -16.050781 18.011719 -16.261719 17.84375 -16.457031 L 18.4375 -16.964844 L 17.855469 -16.441406 C 16.136719 -18.351562 14.039062 -19.308594 11.5625 -19.308594 C 9.089844 -19.308594 7.007812 -18.351562 5.3125 -16.441406 C 3.632812 -14.566406 2.789062 -12.359375 2.789062 -9.820312 C 2.789062 -7.28125 3.632812 -5.074219 5.316406 -3.195312 C 7.007812 -1.289062 9.089844 -0.335938 11.5625 -0.335938 C 14.039062 -0.335938 16.136719 -1.289062 17.855469 -3.203125 L 18.4375 -2.679688 L 17.84375 -3.1875 C 18.011719 -3.382812 18.179688 -3.59375 18.347656 -3.816406 L 19.753906 -5.691406 L 19.753906 0 L 18.972656 0 L 18.972656 -0.78125 Z M 22.097656 -0.78125 "/></g></g></g><g fill="#000000" fill-opacity="1"><g transform="translate(148.514418, 38.984361)"><g><path d="M 12.910156 -15.003906 C 12.34375 -15.523438 11.746094 -15.78125 11.117188 -15.78125 C 10.492188 -15.78125 9.96875 -15.613281 9.546875 -15.28125 C 9.027344 -14.867188 8.601562 -14.371094 8.261719 -13.800781 C 7.589844 -12.617188 7.253906 -11.292969 7.253906 -9.820312 L 7.253906 0.78125 L 2.566406 0.78125 L 2.566406 -20.425781 L 7.253906 -20.425781 L 7.253906 -15.582031 L 6.472656 -15.582031 L 5.703125 -15.710938 L 5.851562 -16.605469 L 5.890625 -16.691406 C 6.464844 -18.039062 7.214844 -19.0625 8.136719 -19.753906 C 9.085938 -20.46875 10.199219 -20.828125 11.472656 -20.828125 C 12.265625 -20.828125 13.023438 -20.671875 13.746094 -20.363281 L 14.21875 -20.160156 L 14.21875 -13.804688 Z M 13.964844 -16.15625 L 13.4375 -15.582031 L 12.65625 -15.582031 L 12.65625 -19.644531 L 13.4375 -19.644531 L 13.128906 -18.925781 C 12.601562 -19.152344 12.050781 -19.265625 11.472656 -19.265625 C 10.546875 -19.265625 9.746094 -19.011719 9.074219 -18.503906 C 8.375 -17.980469 7.792969 -17.171875 7.324219 -16.078125 L 6.605469 -16.382812 L 7.378906 -16.257812 L 7.242188 -15.453125 L 5.691406 -15.582031 L 5.691406 -19.644531 L 6.472656 -19.644531 L 6.472656 -18.863281 L 3.347656 -18.863281 L 3.347656 -19.644531 L 4.128906 -19.644531 L 4.128906 0 L 3.347656 0 L 3.347656 -0.78125 L 6.472656 -0.78125 L 6.472656 0 L 5.691406 0 L 5.691406 -9.820312 C 5.691406 -11.566406 6.101562 -13.15625 6.917969 -14.59375 C 7.351562 -15.332031 7.90625 -15.96875 8.578125 -16.507812 C 9.285156 -17.066406 10.132812 -17.34375 11.117188 -17.34375 C 12.152344 -17.34375 13.101562 -16.949219 13.964844 -16.15625 Z M 13.964844 -16.15625 "/></g></g></g><g fill="#000000" fill-opacity="1"><g transform="translate(0.746636, 38.984361)"><g><path d="M 22.546875 -10.265625 L 22.546875 -8.609375 L 5.265625 -8.609375 C 5.566406 -6.921875 6.382812 -5.539062 7.71875 -4.46875 C 9.09375 -3.363281 10.613281 -2.8125 12.28125 -2.8125 C 13.40625 -2.8125 14.488281 -3.078125 15.53125 -3.609375 C 16.539062 -4.117188 17.390625 -4.835938 18.078125 -5.765625 L 21.65625 -5.765625 C 20.820312 -3.890625 19.570312 -2.414062 17.90625 -1.34375 C 16.207031 -0.238281 14.492188 0.3125 12.765625 0.3125 C 11.015625 0.3125 9.523438 0.046875 8.296875 -0.484375 C 7.046875 -1.023438 5.960938 -1.753906 5.046875 -2.671875 C 3.023438 -4.640625 2.015625 -7.050781 2.015625 -9.90625 C 2.015625 -12.738281 3.023438 -15.164062 5.046875 -17.1875 C 7.035156 -19.175781 9.445312 -20.171875 12.28125 -20.171875 C 15.019531 -20.171875 17.414062 -19.207031 19.46875 -17.28125 C 21.519531 -15.3125 22.546875 -12.972656 22.546875 -10.265625 Z M 19.234375 -11.296875 C 18.878906 -12.960938 18.046875 -14.347656 16.734375 -15.453125 C 15.429688 -16.515625 13.945312 -17.046875 12.28125 -17.046875 C 9.71875 -17.046875 7.707031 -15.898438 6.25 -13.609375 C 5.800781 -12.898438 5.488281 -12.128906 5.3125 -11.296875 Z M 19.234375 -11.296875 "/></g></g></g><g fill="#000000" fill-opacity="1"><g transform="translate(25.076978, 38.984361)"><g><path d="M 6.203125 -2.8125 C 6.972656 -2.28125 7.984375 -2.015625 9.234375 -2.015625 C 12.097656 -2.015625 13.53125 -3.082031 13.53125 -5.21875 C 13.53125 -6.46875 12.503906 -7.421875 10.453125 -8.078125 C 9.585938 -8.378906 8.660156 -8.648438 7.671875 -8.890625 C 6.660156 -9.117188 5.722656 -9.429688 4.859375 -9.828125 C 3.847656 -10.296875 3.09375 -10.890625 2.59375 -11.609375 C 2.082031 -12.316406 1.828125 -13.164062 1.828125 -14.15625 C 1.828125 -16.113281 2.515625 -17.585938 3.890625 -18.578125 C 5.253906 -19.585938 6.890625 -20.09375 8.796875 -20.09375 C 10.703125 -20.09375 12.28125 -19.703125 13.53125 -18.921875 C 14.78125 -18.148438 15.628906 -16.769531 16.078125 -14.78125 L 12.71875 -14.78125 C 12.363281 -15.875 11.84375 -16.601562 11.15625 -16.96875 C 10.5 -17.320312 9.679688 -17.5 8.703125 -17.5 C 7.722656 -17.5 6.890625 -17.289062 6.203125 -16.875 C 5.492188 -16.425781 5.140625 -15.769531 5.140625 -14.90625 C 5.140625 -14.019531 5.4375 -13.367188 6.03125 -12.953125 C 6.59375 -12.554688 7.304688 -12.210938 8.171875 -11.921875 C 9.035156 -11.648438 9.972656 -11.410156 10.984375 -11.203125 C 11.960938 -10.960938 12.898438 -10.632812 13.796875 -10.21875 C 15.816406 -9.269531 16.828125 -7.738281 16.828125 -5.625 C 16.828125 -3.507812 16.066406 -1.945312 14.546875 -0.9375 C 13.773438 -0.425781 12.929688 -0.0390625 12.015625 0.21875 C 11.117188 0.457031 10.132812 0.578125 9.0625 0.578125 C 4.507812 0.578125 1.890625 -1.441406 1.203125 -5.484375 L 4.515625 -5.484375 C 4.835938 -4.210938 5.398438 -3.320312 6.203125 -2.8125 Z M 6.203125 -2.8125 "/></g></g></g><g fill="#000000" fill-opacity="1"><g transform="translate(43.023396, 38.984361)"><g><path d="M 6.515625 -26.421875 C 6.898438 -26.035156 7.09375 -25.578125 7.09375 -25.046875 C 7.09375 -24.472656 6.898438 -23.992188 6.515625 -23.609375 C 6.128906 -23.222656 5.671875 -23.03125 5.140625 -23.03125 C 4.566406 -23.03125 4.085938 -23.222656 3.703125 -23.609375 C 3.316406 -23.992188 3.125 -24.472656 3.125 -25.046875 C 3.125 -25.578125 3.316406 -26.035156 3.703125 -26.421875 C 4.085938 -26.804688 4.566406 -27 5.140625 -27 C 5.671875 -27 6.128906 -26.804688 6.515625 -26.421875 Z M 6.703125 0 L 3.578125 0 L 3.578125 -19.640625 L 6.703125 -19.640625 Z M 6.703125 0 "/></g></g></g><g fill="#000000" fill-opacity="1"><g transform="translate(53.246607, 38.984361)"><g><path d="M 23.171875 -8.484375 C 23.171875 -7.234375 22.882812 -6.039062 22.3125 -4.90625 C 21.75 -3.78125 20.992188 -2.859375 20.046875 -2.140625 C 18.203125 -0.710938 15.734375 0 12.640625 0 L 3.34375 0 L 3.34375 -30.359375 L 11.5625 -30.359375 C 16 -30.359375 18.882812 -28.988281 20.21875 -26.25 C 20.695312 -25.269531 20.9375 -24.269531 20.9375 -23.25 C 20.9375 -22.238281 20.863281 -21.453125 20.71875 -20.890625 C 20.539062 -20.296875 20.300781 -19.734375 20 -19.203125 C 19.3125 -18.035156 18.429688 -17.210938 17.359375 -16.734375 C 19.148438 -16.265625 20.566406 -15.316406 21.609375 -13.890625 C 22.648438 -12.429688 23.171875 -10.628906 23.171875 -8.484375 Z M 17.8125 -22.765625 C 17.8125 -25.828125 15.726562 -27.359375 11.5625 -27.359375 L 6.46875 -27.359375 L 6.46875 -17.90625 L 12.453125 -17.90625 C 14.054688 -17.90625 15.351562 -18.304688 16.34375 -19.109375 C 17.320312 -19.910156 17.8125 -21.128906 17.8125 -22.765625 Z M 20.046875 -9.0625 C 20.046875 -9.957031 19.878906 -10.742188 19.546875 -11.421875 C 19.191406 -12.109375 18.75 -12.707031 18.21875 -13.21875 C 17.019531 -14.257812 15.617188 -14.78125 14.015625 -14.78125 L 6.46875 -14.78125 L 6.46875 -2.984375 L 13.53125 -2.984375 C 15.4375 -2.984375 17 -3.535156 18.21875 -4.640625 C 19.4375 -5.773438 20.046875 -7.25 20.046875 -9.0625 Z M 20.046875 -9.0625 "/></g></g></g><g fill="#000000" fill-opacity="1"><g transform="translate(77.309093, 38.984361)"><g><path d="M 18.96875 -9.828125 C 18.96875 -11.722656 18.316406 -13.390625 17.015625 -14.828125 C 15.671875 -16.253906 14.015625 -16.96875 12.046875 -16.96875 C 10.085938 -16.96875 8.453125 -16.253906 7.140625 -14.828125 C 5.804688 -13.390625 5.140625 -11.722656 5.140625 -9.828125 C 5.140625 -7.921875 5.804688 -6.253906 7.140625 -4.828125 C 8.453125 -3.390625 10.085938 -2.671875 12.046875 -2.671875 C 14.015625 -2.671875 15.671875 -3.390625 17.015625 -4.828125 C 18.316406 -6.253906 18.96875 -7.921875 18.96875 -9.828125 Z M 22.09375 0 L 18.96875 0 L 18.96875 -3.34375 C 18.789062 -3.101562 18.613281 -2.878906 18.4375 -2.671875 C 16.5625 -0.585938 14.269531 0.453125 11.5625 0.453125 C 8.851562 0.453125 6.578125 -0.585938 4.734375 -2.671875 C 2.921875 -4.703125 2.015625 -7.085938 2.015625 -9.828125 C 2.015625 -12.554688 2.921875 -14.9375 4.734375 -16.96875 C 6.578125 -19.050781 8.851562 -20.09375 11.5625 -20.09375 C 14.269531 -20.09375 16.5625 -19.050781 18.4375 -16.96875 C 18.613281 -16.757812 18.789062 -16.535156 18.96875 -16.296875 L 18.96875 -19.640625 L 22.09375 -19.640625 Z M 22.09375 0 "/></g></g></g><g fill="#000000" fill-opacity="1"><g transform="translate(102.755509, 38.984361)"><g><path d="M 0.453125 0 L 13.296875 -16.734375 L 1.203125 -16.734375 L 1.203125 -19.640625 L 19.28125 -19.640625 L 6.421875 -2.90625 L 19.859375 -2.90625 L 19.859375 0 Z M 0.453125 0 "/></g></g></g><g fill="#000000" fill-opacity="1"><g transform="translate(123.068002, 38.984361)"><g><path d="M 18.96875 -9.828125 C 18.96875 -11.722656 18.316406 -13.390625 17.015625 -14.828125 C 15.671875 -16.253906 14.015625 -16.96875 12.046875 -16.96875 C 10.085938 -16.96875 8.453125 -16.253906 7.140625 -14.828125 C 5.804688 -13.390625 5.140625 -11.722656 5.140625 -9.828125 C 5.140625 -7.921875 5.804688 -6.253906 7.140625 -4.828125 C 8.453125 -3.390625 10.085938 -2.671875 12.046875 -2.671875 C 14.015625 -2.671875 15.671875 -3.390625 17.015625 -4.828125 C 18.316406 -6.253906 18.96875 -7.921875 18.96875 -9.828125 Z M 22.09375 0 L 18.96875 0 L 18.96875 -3.34375 C 18.789062 -3.101562 18.613281 -2.878906 18.4375 -2.671875 C 16.5625 -0.585938 14.269531 0.453125 11.5625 0.453125 C 8.851562 0.453125 6.578125 -0.585938 4.734375 -2.671875 C 2.921875 -4.703125 2.015625 -7.085938 2.015625 -9.828125 C 2.015625 -12.554688 2.921875 -14.9375 4.734375 -16.96875 C 6.578125 -19.050781 8.851562 -20.09375 11.5625 -20.09375 C 14.269531 -20.09375 16.5625 -19.050781 18.4375 -16.96875 C 18.613281 -16.757812 18.789062 -16.535156 18.96875 -16.296875 L 18.96875 -19.640625 L 22.09375 -19.640625 Z M 22.09375 0 "/></g></g></g><g fill="#000000" fill-opacity="1"><g transform="translate(148.514418, 38.984361)"><g><path d="M 13.4375 -15.578125 C 12.71875 -16.234375 11.941406 -16.5625 11.109375 -16.5625 C 10.304688 -16.5625 9.625 -16.335938 9.0625 -15.890625 C 8.46875 -15.410156 7.976562 -14.847656 7.59375 -14.203125 C 6.84375 -12.890625 6.46875 -11.429688 6.46875 -9.828125 L 6.46875 0 L 3.34375 0 L 3.34375 -19.640625 L 6.46875 -19.640625 L 6.46875 -15.578125 L 6.609375 -16.390625 C 7.648438 -18.828125 9.269531 -20.046875 11.46875 -20.046875 C 12.15625 -20.046875 12.8125 -19.910156 13.4375 -19.640625 Z M 13.4375 -15.578125 "/></g></g></g></g></g><g transform="matrix(1, 0, 0, 1, 0, 0)"><g clip-path="url(#c1319656f2)"><g clip-path="url(#5e205c7647)"><g fill="#4fc18c" fill-opacity="1"><g transform="translate(1.783746, 40.584723)"><g><path d="M 32.519531 -19.980469 C 32.273438 -17.347656 31.585938 -14.84375 30.457031 -12.46875 C 29.359375 -10.140625 27.894531 -8.054688 26.066406 -6.214844 C 25.160156 -5.324219 24.199219 -4.515625 23.183594 -3.785156 C 22.160156 -3.050781 21.066406 -2.386719 19.890625 -1.796875 C 17.523438 -0.609375 15.0625 0.125 12.515625 0.40625 L 1.707031 1.597656 L 4.78125 -35.828125 L 14.902344 -36.945312 C 17.484375 -37.226562 19.914062 -37.019531 22.1875 -36.316406 C 24.488281 -35.609375 26.433594 -34.515625 28.019531 -33.039062 C 29.621094 -31.585938 30.832031 -29.691406 31.648438 -27.351562 L 29.972656 -26.761719 L 31.632812 -27.394531 C 32.054688 -26.28125 32.34375 -25.105469 32.496094 -23.863281 C 32.652344 -22.628906 32.660156 -21.328125 32.519531 -19.964844 Z M 28.984375 -20.328125 C 29.097656 -21.425781 29.09375 -22.457031 28.972656 -23.421875 C 28.851562 -24.386719 28.632812 -25.289062 28.3125 -26.132812 L 28.304688 -26.15625 L 28.296875 -26.175781 C 27.675781 -27.949219 26.777344 -29.371094 25.605469 -30.4375 C 24.410156 -31.542969 22.921875 -32.375 21.140625 -32.921875 C 19.335938 -33.480469 17.386719 -33.644531 15.292969 -33.414062 L 6.625 -32.457031 L 6.429688 -34.222656 L 8.199219 -34.078125 L 5.421875 -0.257812 L 3.652344 -0.402344 L 3.457031 -2.167969 L 12.125 -3.125 C 14.25 -3.359375 16.308594 -3.972656 18.296875 -4.972656 C 19.304688 -5.476562 20.238281 -6.042969 21.105469 -6.667969 C 21.976562 -7.292969 22.789062 -7.976562 23.546875 -8.71875 C 25.085938 -10.269531 26.320312 -12.03125 27.25 -13.996094 C 28.199219 -15.992188 28.777344 -18.097656 28.984375 -20.3125 Z M 25.671875 -19.929688 C 25.949219 -23.234375 25.078125 -25.820312 23.050781 -27.6875 C 21.035156 -29.550781 18.394531 -30.304688 15.132812 -29.945312 L 9.777344 -29.355469 L 9.582031 -31.121094 L 11.351562 -30.972656 L 9.136719 -4.117188 L 7.367188 -4.261719 L 7.171875 -6.027344 L 12.527344 -6.617188 C 15.941406 -6.992188 18.890625 -8.433594 21.375 -10.941406 C 23.972656 -13.519531 25.40625 -16.511719 25.667969 -19.917969 Z M 29.210938 -19.644531 C 28.878906 -15.359375 27.105469 -11.625 23.898438 -8.441406 C 20.824219 -5.339844 17.164062 -3.554688 12.917969 -3.085938 L 5.417969 -2.261719 L 7.933594 -32.726562 L 14.742188 -33.476562 C 19.078125 -33.953125 22.652344 -32.894531 25.460938 -30.296875 C 28.335938 -27.644531 29.585938 -24.089844 29.210938 -19.632812 Z M 29.210938 -19.644531 "/></g></g></g></g><g fill="#4fc18c" fill-opacity="1"><g transform="translate(1.783746, 40.584723)"><g><path d="M 30.734375 -20.15625 C 30.515625 -17.726562 29.882812 -15.421875 28.84375 -13.234375 C 27.832031 -11.078125 26.484375 -9.15625 24.796875 -7.46875 C 23.972656 -6.65625 23.085938 -5.90625 22.140625 -5.21875 C 21.203125 -4.539062 20.1875 -3.9375 19.09375 -3.40625 C 16.914062 -2.300781 14.65625 -1.617188 12.3125 -1.359375 L 3.65625 -0.40625 L 6.421875 -34.21875 L 15.09375 -35.171875 C 17.425781 -35.429688 19.613281 -35.25 21.65625 -34.625 C 23.695312 -33.988281 25.410156 -33.023438 26.796875 -31.734375 C 28.191406 -30.472656 29.25 -28.8125 29.96875 -26.75 C 30.332031 -25.78125 30.582031 -24.742188 30.71875 -23.640625 C 30.863281 -22.535156 30.867188 -21.375 30.734375 -20.15625 Z M 27.4375 -19.78125 C 27.757812 -23.65625 26.695312 -26.722656 24.25 -28.984375 C 21.84375 -31.210938 18.738281 -32.113281 14.9375 -31.6875 L 9.59375 -31.109375 L 7.359375 -4.265625 L 12.71875 -4.84375 C 16.550781 -5.269531 19.859375 -6.882812 22.640625 -9.6875 C 25.535156 -12.570312 27.132812 -15.9375 27.4375 -19.78125 Z M 27.4375 -19.78125 "/></g></g></g></g></g></svg>